<svg id="Layer_1" data-name="Layer 1" xmlns="http://www.w3.org/2000/svg" viewBox="0 0 788.13 788.13"><defs><style>.cls-1,.cls-2{fill:#231f20;}.cls-2{fill-rule:evenodd;}</style></defs><title>opportunity-icon</title><circle class="cls-1" cx="391.56" cy="391.56" r="200"/><path class="cls-2" d="M737.27,666.76a291.62,291.62,0,0,1-70.5,70.5l74.4,74.4a396.39,396.39,0,0,0,70.5-70.5Z" transform="translate(-105.94 -105.94)"/><path class="cls-2" d="M890.94,450.15H785.72a292.22,292.22,0,0,1,0,99.71H890.94a399.16,399.16,0,0,0,0-99.71Z" transform="translate(-105.94 -105.94)"/><path class="cls-2" d="M737.35,333.36l74.4-74.4A396.4,396.4,0,0,0,741,188.24l-74.4,74.4A291.62,291.62,0,0,1,737.35,333.36Z" transform="translate(-105.94 -105.94)"/><path class="cls-2" d="M500,105.94a397.88,397.88,0,0,0-50,3.14V214.31a292.29,292.29,0,0,1,100,0V109.08A397.88,397.88,0,0,0,500,105.94Z" transform="translate(-105.94 -105.94)"/><path class="cls-2" d="M188.33,258.84l74.4,74.4a291.62,291.62,0,0,1,70.5-70.5l-74.4-74.4A396.4,396.4,0,0,0,188.33,258.84Z" transform="translate(-105.94 -105.94)"/><path class="cls-2" d="M210,500a291.8,291.8,0,0,1,4.28-49.85H109.06a399.16,399.16,0,0,0,0,99.71H214.28A291.8,291.8,0,0,1,210,500Z" transform="translate(-105.94 -105.94)"/><path class="cls-2" d="M262.65,666.64,188.24,741A396.4,396.4,0,0,0,259,811.76l74.4-74.4A291.62,291.62,0,0,1,262.65,666.64Z" transform="translate(-105.94 -105.94)"/><path class="cls-2" d="M450,785.69V890.92a399.26,399.26,0,0,0,100,0V785.69a292.29,292.29,0,0,1-100,0Z" transform="translate(-105.94 -105.94)"/></svg>